# xmcd
#
# Track frame offsets:
#	150
#	14020
#	35977
#	52105
#	68795
#	84742
#	104687
#	121595
#	138482
#	160545
#	178407
#	192605
#
# Disc length: 2835 seconds
#
# Revision: 0
# Processed by: cddbd v1.5.1PL0 Copyright (c) Steve Scherf et al.
# Submitted via: dBpowerAMP V4.0
#
DISCID=b50b110c
DTITLE=Texas Ride - The Difference Between the Truth and Lie
DYEAR=1900
DGENRE=Country
TTITLE0=Sweet Ashley
TTITLE1=In Search of a Song
TTITLE2=One More Day
TTITLE3=Memory Bay
TTITLE4=Nowhere to Go
TTITLE5=Miss Margarita
TTITLE6=Arms of My Lord
TTITLE7=Live It
TTITLE8=Movin' On
TTITLE9=Friday Night
TTITLE10=Southbound Train
TTITLE11=Poor Beggar's Plea
EXTD=
EXTT0=
EXTT1=
EXTT2=
EXTT3=
EXTT4=
EXTT5=
EXTT6=
EXTT7=
EXTT8=
EXTT9=
EXTT10=
EXTT11=
PLAYORDER=
